<svg width="1200" height="760" viewBox="0 0 1200 760" fill="none" xmlns="http://www.w3.org/2000/svg">
  <rect width="1200" height="760" rx="42" fill="#1A11FF"/>
  <rect x="288" y="176" width="624" height="408" rx="18" fill="#0B0D13"/>
  <path d="M366 210H450V548H366V210Z" fill="#FFF4E6"/>
  <path d="M450 210H536V548H450V210Z" fill="#1C44FF"/>
  <path d="M536 210H622V548H536V210Z" fill="#131313"/>
  <path d="M622 210H708V548H622V210Z" fill="#FF914E"/>
  <path d="M708 210H794V548H708V210Z" fill="#1E43FF"/>
  <path d="M794 210H834V548H794V210Z" fill="#FFF4E6"/>
  <circle cx="494" cy="292" r="54" fill="#FFF4E6"/>
  <circle cx="708" cy="292" r="54" fill="#FF914E"/>
  <circle cx="536" cy="456" r="54" fill="#FF914E"/>
  <circle cx="750" cy="456" r="54" fill="#FFF4E6"/>
  <rect x="568" y="314" width="100" height="132" rx="24" fill="#FF914E"/>
  <rect x="610" y="342" width="16" height="76" rx="8" fill="#0A0A0C"/>
  <rect x="582" y="370" width="72" height="16" rx="8" fill="#0A0A0C"/>
  <circle cx="620" cy="380" r="22" stroke="#1D43FF" stroke-width="12"/>
</svg>
